HIERARCHY
ROOT teapot2
{
	OFFSET 0.000000 0.000000 0.000000
	CHANNELS 6 Xposition Yposition Zposition Yrotation Xrotation Zrotation
	End Site
	{
		OFFSET 0.000000 0.000000 0.000000
	}
}
MOTION
Frames: 122
Frame Time: 0.008333334
1.409912 5.263436 3.756814 92.268800 -26.637790 -5.998749 
1.411862 5.265386 3.754694 92.326740 -25.737120 -5.678345 
1.414396 5.266795 3.752352 92.351660 -24.840060 -5.417175 
1.416252 5.268435 3.750560 92.285690 -23.976930 -5.147736 
1.418700 5.270271 3.748410 92.209640 -23.125120 -4.902893 
1.421545 5.272422 3.745541 92.170150 -22.225070 -4.724945 
1.424372 5.273789 3.742981 92.116740 -21.492520 -4.486359 
1.427426 5.275676 3.741071 92.055730 -20.689790 -4.299744 
1.431610 5.277174 3.738112 92.147670 -19.913020 -4.108246 
1.434223 5.279198 3.734965 91.993330 -19.084530 -3.962860 
1.437713 5.281057 3.732829 92.088480 -18.312710 -3.864685 
1.441289 5.281993 3.730356 92.246210 -17.488650 -3.696747 
1.444763 5.283156 3.728214 92.373600 -16.891780 -3.598572 
1.448604 5.283872 3.726884 92.550350 -16.098390 -3.428802 
1.452477 5.283962 3.725290 92.705700 -15.319550 -3.220581 
1.456649 5.284651 3.723846 92.850440 -14.582090 -3.112762 
1.461257 5.285156 3.722929 92.957850 -13.785370 -2.930542 
1.466243 5.285616 3.722755 93.002910 -13.119380 -2.753876 
1.471654 5.286399 3.723015 92.924480 -12.326780 -2.585327 
1.477453 5.286647 3.723194 92.866430 -11.618800 -2.418243 
1.484038 5.286452 3.724000 92.747440 -10.910680 -2.197815 
1.490565 5.286532 3.724812 92.624660 -10.301640 -2.024475 
1.497556 5.285773 3.726145 92.529690 -9.540131 -1.810425 
1.504405 5.285189 3.727720 92.449810 -8.951782 -1.658630 
1.512877 5.284487 3.728885 92.372470 -8.309540 -1.528625 
1.520776 5.282613 3.730294 92.221510 -7.611603 -1.335510 
1.528322 5.279986 3.731658 92.011010 -6.954987 -1.084503 
1.537471 5.277483 3.733177 91.808840 -6.352875 -0.971985 
1.546369 5.274473 3.734748 91.613430 -5.785522 -0.782074 
1.555486 5.270436 3.736333 91.424720 -5.257172 -0.553131 
1.563521 5.266280 3.737659 91.030760 -4.597321 -0.433807 
1.572025 5.261295 3.739027 90.835690 -4.093689 -0.216522 
1.581043 5.256411 3.740050 90.760000 -3.581329 -0.075287 
1.589162 5.251115 3.741619 90.543340 -3.036224 0.014770 
1.597170 5.245470 3.743045 90.421640 -2.571198 0.173616 
1.605149 5.240038 3.743916 90.319730 -2.056274 0.263211 
1.613525 5.234262 3.745050 90.309040 -1.679871 0.388801 
1.620795 5.228837 3.745620 90.154140 -1.175171 0.429083 
1.628282 5.223382 3.746150 90.045650 -0.787628 0.543098 
1.635874 5.218027 3.746301 89.938620 -0.390808 0.637210 
1.642429 5.212142 3.746404 89.773530 -0.116913 0.775493 
1.648737 5.206687 3.746518 89.610020 0.325485 0.855652 
1.655360 5.201179 3.746355 89.496400 0.564890 0.925284 
1.662073 5.196004 3.745726 89.409070 0.861341 0.942545 
1.667641 5.190601 3.745553 89.382580 1.070175 1.043225 
1.672740 5.186481 3.745255 89.347880 1.206491 1.040302 
1.677053 5.182265 3.744368 89.393490 1.389578 1.112788 
1.681126 5.178722 3.743987 89.497750 1.597112 1.166785 
1.684250 5.175974 3.744015 89.442310 1.863163 1.077510 
1.687645 5.172561 3.744280 89.486270 1.999193 1.066807 
1.691068 5.168828 3.743679 89.502070 2.195519 1.113478 
1.694639 5.164883 3.743697 89.415590 2.249995 1.067104 
1.698238 5.160340 3.744056 89.299610 2.355776 1.041124 
1.700874 5.154858 3.743444 89.075280 2.341787 1.108123 
1.703501 5.149651 3.742514 88.804290 2.373742 1.094269 
1.705846 5.143769 3.741918 88.619470 2.354697 1.136064 
1.707500 5.137940 3.740413 88.450100 2.326192 1.064843 
1.708383 5.131994 3.738514 88.300750 2.354370 1.040469 
1.708113 5.126088 3.736375 88.109870 2.425272 0.898586 
1.707883 5.119597 3.734258 87.935390 2.547163 0.755134 
1.708815 5.111085 3.732051 88.037120 2.453341 0.861689 
1.706867 5.103272 3.728926 87.723890 2.576777 0.600879 
1.705984 5.093626 3.726032 87.594540 2.618131 0.487894 
1.704812 5.083772 3.722692 87.454570 2.640496 0.359955 
1.702823 5.072622 3.718597 87.211650 2.675685 0.163768 
1.700694 5.061159 3.714842 87.089900 2.692994 -0.013672 
1.698177 5.048877 3.710117 86.978720 2.566318 -0.120392 
1.695385 5.035863 3.705567 86.841720 2.606041 -0.318024 
1.691999 5.022285 3.699792 86.776540 2.500903 -0.462402 
1.688581 5.008660 3.694492 86.726910 2.464348 -0.628143 
1.684760 4.994850 3.688441 86.668300 2.428500 -0.790527 
1.680432 4.980986 3.681725 86.518250 2.329959 -0.914154 
1.676131 4.966891 3.675402 86.430790 2.289900 -1.048859 
1.671721 4.952651 3.668796 86.512050 2.153433 -1.081818 
1.666006 4.939612 3.661438 86.336590 2.188762 -1.247925 
1.661055 4.925699 3.654196 86.472900 2.016338 -1.236267 
1.654451 4.913145 3.645936 86.344270 1.934510 -1.368774 
1.648454 4.900291 3.638589 86.281560 1.858855 -1.413269 
1.641772 4.887653 3.629834 86.251370 1.832260 -1.431885 
1.634913 4.875871 3.621269 86.287000 1.650502 -1.453491 
1.627619 4.864822 3.612250 86.258280 1.582848 -1.520569 
1.620590 4.853737 3.603065 86.336270 1.458378 -1.491760 
1.612898 4.843161 3.593484 86.305530 1.312260 -1.470123 
1.605873 4.832854 3.583060 86.319250 1.263407 -1.484802 
1.598686 4.822755 3.573322 86.386410 1.017735 -1.449554 
1.590821 4.813406 3.562982 86.263060 1.070529 -1.490570 
1.583878 4.803676 3.552038 86.343280 0.845383 -1.407074 
1.576446 4.793738 3.541308 86.353530 0.757575 -1.337219 
1.569656 4.783907 3.530010 86.451290 0.545373 -1.322021 
1.562167 4.773982 3.519167 86.461980 0.527393 -1.214233 
1.555717 4.764022 3.507840 86.595330 0.342149 -1.145142 
1.548103 4.754277 3.496374 86.424350 0.476191 -1.158722 
1.542459 4.742832 3.485131 86.633270 0.192709 -0.974976 
1.536350 4.731398 3.474002 86.606860 0.038057 -0.884583 
1.530718 4.720025 3.462498 86.658670 -0.028320 -0.797363 
1.525790 4.707684 3.451632 86.682800 -0.138794 -0.700317 
1.520796 4.694814 3.439944 86.671220 -0.152191 -0.577148 
1.516473 4.681175 3.428964 86.710830 -0.283478 -0.502533 
1.513206 4.667018 3.417761 86.750530 -0.382172 -0.443573 
1.509418 4.652343 3.406726 86.747320 -0.441528 -0.327301 
1.507040 4.636749 3.396170 86.763220 -0.458984 -0.161591 
1.505094 4.621153 3.385372 86.812610 -0.511536 -0.090485 
1.503151 4.605293 3.374802 86.723220 -0.524689 -0.018829 
1.500944 4.589005 3.363368 86.683310 -0.639923 0.010440 
1.499886 4.571802 3.353636 86.626550 -0.658234 0.115907 
1.499325 4.554535 3.343653 86.658370 -0.734833 0.186286 
1.498503 4.537297 3.333840 86.610390 -0.759857 0.273594 
1.498209 4.519526 3.324501 86.706490 -0.815308 0.342360 
1.498969 4.500619 3.315690 86.720480 -0.780212 0.458556 
1.499206 4.483160 3.306881 86.808750 -0.757904 0.525749 
1.500398 4.464318 3.298281 86.884050 -0.748108 0.626996 
1.501690 4.445747 3.290172 86.931300 -0.752655 0.647888 
1.503275 4.427315 3.281988 86.974710 -0.760132 0.711907 
1.505415 4.409147 3.274672 86.985860 -0.764374 0.746953 
1.507483 4.390559 3.267427 86.938910 -0.710602 0.784930 
1.510110 4.371723 3.260432 86.874260 -0.621307 0.834928 
1.513192 4.353291 3.253757 86.806130 -0.500519 0.888196 
1.516891 4.334833 3.247255 86.700180 -0.481049 0.950309 
1.520201 4.316457 3.240948 86.538090 -0.358276 0.980631 
1.523517 4.297839 3.235490 86.478870 -0.292450 1.037667 
1.526780 4.279432 3.229671 86.365550 -0.139130 1.081445 
1.530505 4.260809 3.224375 86.406880 -0.077637 1.203337 
